<svg width="49" height="49" viewBox="0 0 49 49" fill="none" xmlns="http://www.w3.org/2000/svg">
<path d="M36.6724 17.2065C35.9524 16.3865 35.2124 15.5665 34.4324 14.7865L33.8524 14.2465L34.1324 14.0065C35.1105 13.1669 35.8075 12.0475 36.1294 10.7994C36.4512 9.5512 36.3825 8.23434 35.9324 7.02648C35.2803 5.66442 34.2476 4.52034 32.9593 3.73244C31.671 2.94454 30.1821 2.54653 28.6724 2.58648V6.58648C29.384 6.57657 30.0854 6.7567 30.7042 7.10826C31.3229 7.45983 31.8367 7.97012 32.1924 8.58648C32.5324 9.38648 32.1924 10.2665 31.2524 11.2065C31.1124 11.3665 30.9524 11.4665 30.8124 11.6065C24.8124 6.78648 18.2324 4.06648 15.0124 7.28648C14.6763 7.63222 14.3993 8.03087 14.1924 8.46648V8.66648L13.8324 9.72648L5.01245 35.9265C4.67883 36.9138 4.58524 37.9664 4.73944 38.9971C4.89364 40.0278 5.29118 41.0069 5.89914 41.8534C6.5071 42.6998 7.30799 43.3892 8.23546 43.8645C9.16292 44.3398 10.1903 44.5873 11.2324 44.5865C11.913 44.5802 12.5881 44.4654 13.2324 44.2465L40.6724 35.1465C41.0097 35.0209 41.3068 34.8067 41.5324 34.5265L41.9524 34.1665C44.8124 31.2865 42.9724 25.7465 39.1324 20.3665C41.4125 19.0358 44.038 18.416 46.6724 18.5865V14.5865C43.1471 14.3925 39.6497 15.3088 36.6724 17.2065ZM12.0724 40.4465C11.6185 40.5967 11.1316 40.6179 10.6664 40.5075C10.2011 40.3971 9.77559 40.1596 9.43744 39.8215C9.0993 39.4833 8.86179 39.0579 8.75143 38.5926C8.64106 38.1273 8.66219 37.6405 8.81245 37.1865L11.5324 28.9865C13.4736 32.6883 16.4564 35.7405 20.1124 37.7665L12.0724 40.4465ZM26.0724 35.7865C23.0499 34.986 20.2926 33.4009 18.0799 31.1917C15.8672 28.9825 14.2777 26.2277 13.4724 23.2065L15.4724 17.2065L15.5924 17.3865C15.8124 17.8265 16.0924 18.2865 16.3724 18.7465C16.6524 19.2065 16.6924 19.3265 16.8924 19.6265C17.0924 19.9265 17.5524 20.5865 17.9124 21.0865C18.2724 21.5865 18.2924 21.6465 18.5124 21.9265C18.7324 22.2065 19.3724 23.0265 19.8324 23.5665L20.4124 24.2665C21.0924 25.0465 21.8124 25.8065 22.5724 26.5865C23.3324 27.3665 23.9324 27.8665 24.5724 28.5865L25.2324 29.1465L26.7924 30.4065L27.5324 30.9665C28.0924 31.3665 28.6325 31.7665 29.1924 32.1265L29.8124 32.5265C30.5324 32.9665 31.2524 33.3865 31.9524 33.7465H32.0524L26.0724 35.7865ZM39.0924 31.3265H38.9724C37.5924 32.0865 31.8524 30.1865 25.3924 23.7065C24.7124 23.0265 24.0724 22.3665 23.4924 21.7065L22.9124 21.0065L21.8524 19.7265L21.2724 18.9265C21.0124 18.5465 20.7324 18.1865 20.4924 17.8265L19.9724 16.9865L19.3924 16.0465C19.2324 15.7665 19.1124 15.5065 18.9724 15.2465C18.8324 14.9865 18.6724 14.7265 18.5524 14.4465C18.4437 14.2127 18.3502 13.9722 18.2724 13.7265C18.1724 13.4665 18.0524 13.2065 17.9724 12.9665C17.8924 12.7265 17.8724 12.5865 17.8124 12.3465C17.7524 12.1065 17.7124 11.9065 17.6724 11.7065C17.6612 11.5333 17.6612 11.3596 17.6724 11.1865C17.6532 11.0271 17.6532 10.8659 17.6724 10.7065L17.8924 10.0865C18.6124 9.36648 22.3524 10.0865 27.3524 13.8865C26.5053 14.2701 25.599 14.5068 24.6724 14.5865V18.5865C26.7969 18.4643 28.8581 17.8184 30.6724 16.7065L31.6324 17.6265C32.4724 18.4665 33.2524 19.3265 33.9924 20.1865C32.8476 22.2567 32.4254 24.6494 32.7924 26.9865L36.7924 26.2065C36.6756 25.4644 36.6756 24.7086 36.7924 23.9665C37.4048 24.8909 37.9463 25.8604 38.4124 26.8665C39.5324 29.5065 39.4524 30.9865 39.0924 31.3265Z" fill="#FAFAFA"/>
</svg>
